<?xml version="1.0" standalone="no"?>
<!DOCTYPE svg PUBLIC "-//W3C//DTD SVG 20010904//EN"
 "http://www.w3.org/TR/2001/REC-SVG-20010904/DTD/svg10.dtd">
<svg version="1.0" xmlns="http://www.w3.org/2000/svg"
 width="1200.000000pt" height="1200.000000pt" viewBox="0 0 1200.000000 1200.000000"
 preserveAspectRatio="xMidYMid meet">
<metadata>
Created by potrace 1.14, written by Peter Selinger 2001-2017
</metadata>
<g transform="translate(0.000000,1200.000000) scale(0.100000,-0.100000)"
fill="#000000" stroke="none">
<path d="M0 5985 l0 -5235 1935 0 1935 0 0 2549 c0 2103 2 2550 13 2554 8 3
42 -31 85 -87 82 -104 648 -834 779 -1004 49 -63 93 -119 98 -125 6 -7 64 -82
130 -167 66 -85 125 -162 132 -170 6 -8 73 -94 147 -190 75 -96 152 -195 171
-220 19 -25 112 -144 206 -265 94 -121 174 -221 177 -222 4 -2 16 10 27 26 18
26 143 192 163 216 4 6 35 46 67 90 64 85 76 101 115 149 20 24 99 129 182
241 4 6 18 24 31 40 33 42 160 210 307 405 69 91 127 167 130 170 3 3 58 75
122 160 64 85 193 256 287 380 94 124 230 303 302 398 77 101 138 172 147 172
16 0 17 -178 16 -2550 l-1 -2550 2149 0 2148 0 0 5235 0 5235 -1947 0 -1948
-1 -76 -102 c-76 -100 -337 -444 -381 -501 -13 -16 -137 -178 -276 -360 -138
-182 -258 -338 -265 -346 -6 -9 -46 -60 -88 -115 -41 -55 -230 -302 -419 -550
-189 -247 -378 -496 -420 -552 -41 -56 -77 -102 -80 -102 -3 0 -122 148 -265
330 -143 182 -270 342 -283 357 -12 15 -42 52 -65 82 -23 30 -69 88 -102 130
-33 41 -73 93 -90 114 -16 21 -34 44 -40 50 -5 6 -23 29 -39 51 -17 22 -33 42
-36 45 -4 3 -40 48 -81 100 -73 94 -308 390 -333 421 -7 9 -37 47 -66 85 -44
56 -202 256 -257 324 -7 8 -87 110 -178 225 -91 116 -180 227 -198 249 -17 21
-36 44 -40 52 -7 12 -311 14 -2017 14 l-2010 0 0 -5235z"/>
</g>
</svg>
